<svg xmlns="http://www.w3.org/2000/svg" viewBox="0 0 32 32">
  <path fill="#25D366" d="M16 2C8.27 2 2 8.27 2 16c0 2.46.66 4.86 1.91 6.97L2 30l7.27-1.87A13.93 13.93 0 0016 30c7.73 0 14-6.27 14-14S23.73 2 16 2zm7.26 19.2c-.3.84-1.76 1.6-2.42 1.66-.65.07-1.27.3-4.27-1C13.12 20.5 10.9 17.3 10.73 17.1c-.17-.2-1.42-1.9-1.42-3.62s.9-2.57 1.22-2.92c.32-.35.7-.44.94-.44.23 0 .47.01.67.01.22 0 .52-.08.81.62.3.7 1.03 2.5 1.12 2.68.1.18.16.4.03.63-.13.24-.2.38-.39.58-.2.2-.41.46-.58.62-.19.18-.39.37-.17.73.23.35.99 1.63 2.13 2.64 1.46 1.3 2.7 1.7 3.08 1.9.37.17.59.14.8-.08.22-.23.94-1.1 1.2-1.47.25-.37.5-.31.84-.18.35.12 2.2 1.04 2.58 1.23.38.18.62.27.72.42.1.15.1.87-.2 1.72z"/>
</svg>
